<?xml version="1.0" encoding="UTF-8" standalone="no" ?>
<!DOCTYPE svg PUBLIC "-//W3C//DTD SVG 1.1//EN" "http://www.w3.org/Graphics/SVG/1.1/DTD/svg11.dtd">
<svg xmlns="http://www.w3.org/2000/svg" xmlns:xlink="http://www.w3.org/1999/xlink" version="1.1" width="1280" height="1024" viewBox="0 0 1280 1024" xml:space="preserve">
<desc>Created with Fabric.js 5.3.0</desc>
<defs>
</defs>
<g transform="matrix(1 0 0 1 640 512)" id="background-logo"  >
<rect style="stroke: none; stroke-width: 0; stroke-dasharray: none; stroke-linecap: butt; stroke-dashoffset: 0; stroke-linejoin: miter; stroke-miterlimit: 4; fill: rgb(255,255,255); fill-opacity: 0; fill-rule: nonzero; opacity: 1;"  paint-order="stroke"  x="-640" y="-512" rx="0" ry="0" width="1280" height="1024" />
</g>
<g transform="matrix(0.856516679572943 0 0 0.856516679572943 655.5859022556391 553.2442762038011)" id="logo-logo"  >
<g style=""  paint-order="stroke"   >
		<g transform="matrix(0.1973048791741358 0 0 -0.1973048791741358 0 71.33863729103604)"  >
<path style="stroke: none; stroke-width: 1; stroke-dasharray: none; stroke-linecap: butt; stroke-dashoffset: 0; stroke-linejoin: miter; stroke-miterlimit: 4; fill: rgb(237,175,24); fill-rule: nonzero; opacity: 1;"  paint-order="stroke"  transform=" translate(-427.50403419326096, -140.3495)" d="M 627.75 270.906 C 622.266 277.133 614.371 280.699 606.07 280.699 L 28.8867 280.699 C 12.9336 280.699 0 267.77 0 251.816 L 0 28.8867 C 0 12.9336 12.9336 0 28.8867 0 L 130.953 0 C 146.91 0 159.84 12.9336 159.84 28.8867 L 159.84 143.727 C 159.84 153.531 167.78900000000002 161.48000000000002 177.594 161.48000000000002 L 512.707 161.48000000000002 C 521.055 161.48000000000002 528.996 157.86700000000002 534.48 151.574 L 657.984 9.90625 C 663.469 3.60938 671.41 0 679.758 0 L 844.258 0 C 853.5120000000001 0 858.426 10.9297 852.2810000000001 17.8555 L 627.75 270.906" stroke-linecap="round" />
</g>
		<g transform="matrix(0.1973048791741358 0 0 -0.1973048791741358 -28.603886995009248 -40.71741745720357)"  >
<path style="stroke: none; stroke-width: 1; stroke-dasharray: none; stroke-linecap: butt; stroke-dashoffset: 0; stroke-linejoin: miter; stroke-miterlimit: 4; fill: rgb(68,84,156); fill-rule: nonzero; opacity: 1;"  paint-order="stroke"  transform=" translate(-282.53100000000006, -708.2830210425386)" d="M 333.684 925.75 C 299.641 925.898 265.598 926.031 231.55100000000004 926.082 C 215.57800000000003 926.109 202.60900000000004 913.141 202.60900000000004 897.164 L 202.60900000000004 519.371 C 202.60900000000004 503.418 215.54300000000003 490.484 231.49600000000004 490.484 L 333.56600000000003 490.484 C 349.52000000000004 490.484 362.45300000000003 503.418 362.45300000000003 519.371 L 362.45300000000003 896.8589999999999 C 362.45300000000003 912.766 349.59000000000003 925.684 333.684 925.7499999999999" stroke-linecap="round" />
</g>
		<g transform="matrix(0.1973048791741358 0 0 -0.1973048791741358 -9.7303928202885 -16.746085439588683)"  >
<path style="stroke: none; stroke-width: 1; stroke-dasharray: none; stroke-linecap: butt; stroke-dashoffset: 0; stroke-linejoin: miter; stroke-miterlimit: 4; fill: rgb(237,175,24); fill-rule: nonzero; opacity: 1;"  paint-order="stroke"  transform=" translate(-378.1875, -586.7891577485727)" d="M 451.25 847.605 C 444.434 847.605 440.016 847.613 436.801 847.633 C 420.79699999999997 847.707 407.824 834.754 407.824 818.7460000000001 L 407.824 727.5470000000001 C 407.824 711.5940000000002 420.75800000000004 698.6600000000001 436.711 698.6600000000001 L 451.25 698.6600000000001 C 551.746 698.6600000000001 596.535 630.855 596.535 563.051 C 596.535 557.105 596.2379999999999 551.2620000000001 594.387 542.9960000000001 C 581.4609999999999 485.3360000000001 528.977 445.1680000000001 469.88699999999994 445.1760000000001 L 176 445.223 C 167.074 445.22700000000003 159.84 452.461 159.84 461.38300000000004 L 159.84 652.961 C 159.84 671.008 145.211 685.6370000000001 127.168 685.6370000000001 L 32.6758 685.6370000000001 C 14.6289 685.637 0 671.008 0 652.961 L 0 354.832 C 0 338.879 12.9336 325.945 28.8867 325.945 L 612.098 325.945 C 616.7149999999999 325.945 621.332 326.992 625.4259999999999 329.133 C 722.0269999999999 379.57 756.375 473.48 756.375 566.68 C 756.375 713.1909999999999 651.027 846.391 451.25 847.605" stroke-linecap="round" />
</g>
		<g transform="matrix(0.1973048791741358 0 0 -0.1973048791741358 -68.58002586936004 -72.10842227713388)"  >
<path style="stroke: none; stroke-width: 1; stroke-dasharray: none; stroke-linecap: butt; stroke-dashoffset: 0; stroke-linejoin: miter; stroke-miterlimit: 4; fill: rgb(68,84,156); fill-rule: nonzero; opacity: 1;"  paint-order="stroke"  transform=" translate(-79.91999999999999, -867.3820000000001)" d="M 27.7734 730.934 L 132.063 730.934 C 147.40599999999998 730.934 159.83999999999997 743.3439999999999 159.83999999999997 758.684 C 159.83199999999997 811.0509999999999 159.81999999999996 923.871 159.813 976.168 C 159.813 991.465 147.414 1003.83 132.117 1003.83 L 27.7734 1003.83 C 12.4336 1003.83 0 991.395 0 976.055 L 0 758.707 C 0 743.367 12.4336 730.934 27.7734 730.934" stroke-linecap="round" />
</g>
</g>
</g>
<g transform="matrix(1.9211538461538462 0 0 1.9211538461538462 501.7022082350086 665.8310404371177)" id="text-logo"  >
<g style=""  paint-order="stroke"   >
		<g transform="matrix(1 0 0 1 0 0)" id="text-logo-path-0"  >
<path style="stroke: rgb(255,255,255); stroke-width: 0; stroke-dasharray: none; stroke-linecap: butt; stroke-dashoffset: 0; stroke-linejoin: miter; stroke-miterlimit: 4; fill: rgb(68,84,156); fill-rule: nonzero; opacity: 1;"  paint-order="stroke"  transform=" translate(-90.84, 19.55)" d="M 3.68 0 L 3.68 -39.1 L 15.5 -39.1 C 18.07 -39.1 20.25 -38.65 22.05 -37.76 C 23.85 -36.87 25.22 -35.56 26.16 -33.81 C 27.1 -32.07 27.55 -29.89 27.55 -27.31 L 27.55 -27.31 C 27.55 -25.35 27.26 -23.63 26.69 -22.16 C 26.1 -20.68 25.27 -19.42 24.17 -18.42 C 23.07 -17.4 21.75 -16.62 20.22 -16.06 L 20.22 -16.06 L 18.32 -15.01 L 8.33 -15.01 L 8.3 -20.49 L 15.33 -20.49 C 16.6 -20.49 17.67 -20.76 18.5 -21.32 C 19.34 -21.89 19.98 -22.64 20.41 -23.63 C 20.81 -24.63 21.03 -25.73 21.03 -26.99 L 21.03 -26.99 C 21.03 -28.33 20.84 -29.51 20.46 -30.51 C 20.09 -31.5 19.5 -32.25 18.69 -32.82 C 17.89 -33.35 16.81 -33.62 15.5 -33.62 L 15.5 -33.62 L 10.21 -33.62 L 10.21 0 L 3.68 0 Z M 28.87 0 L 21.89 0 L 14.45 -17.56 L 21.24 -17.59 L 28.87 -0.35 L 28.87 0 Z M 44.92 -5.45 L 61.9 -5.45 L 61.9 0 L 44.92 0 L 44.92 -5.45 Z M 40.12 -39.1 L 46.64 -39.1 L 46.64 0 L 40.12 0 L 40.12 -39.1 Z M 44.92 -22.83 L 59.61 -22.83 L 59.61 -17.46 L 44.92 -17.46 L 44.92 -22.83 Z M 44.92 -39.1 L 61.73 -39.1 L 61.73 -33.62 L 44.92 -33.62 L 44.92 -39.1 Z M 92.93 -12.76 L 92.93 -12.76 L 99.43 -12.76 C 99.3 -9.94 98.73 -7.52 97.71 -5.56 C 96.69 -3.57 95.24 -2.07 93.34 -1.02 C 91.43 0.03 89.09 0.54 86.35 0.54 L 86.35 0.54 C 84.29 0.54 82.43 0.16 80.8 -0.59 C 79.16 -1.34 77.76 -2.44 76.61 -3.87 C 75.45 -5.29 74.59 -7.01 74 -9.08 C 73.38 -11.15 73.09 -13.48 73.09 -16.09 L 73.09 -16.09 L 73.09 -23.02 C 73.09 -25.62 73.41 -27.96 74.03 -30.02 C 74.65 -32.09 75.53 -33.84 76.69 -35.26 C 77.84 -36.68 79.26 -37.79 80.96 -38.54 C 82.62 -39.26 84.5 -39.64 86.62 -39.64 L 86.62 -39.64 C 89.34 -39.64 91.59 -39.13 93.44 -38.08 C 95.3 -37.03 96.72 -35.53 97.71 -33.52 C 98.71 -31.5 99.3 -29.06 99.46 -26.18 L 99.46 -26.18 L 92.96 -26.18 C 92.88 -28.14 92.61 -29.7 92.18 -30.88 C 91.73 -32.04 91.08 -32.9 90.19 -33.41 C 89.31 -33.92 88.1 -34.19 86.62 -34.19 L 86.62 -34.19 C 85.39 -34.19 84.34 -33.95 83.45 -33.49 C 82.57 -33.03 81.84 -32.33 81.28 -31.42 C 80.71 -30.48 80.28 -29.33 80.02 -27.96 C 79.72 -26.56 79.59 -24.92 79.59 -23.07 L 79.59 -23.07 L 79.59 -16.09 C 79.59 -14.29 79.69 -12.7 79.94 -11.33 C 80.18 -9.96 80.55 -8.78 81.06 -7.84 C 81.57 -6.88 82.27 -6.15 83.13 -5.67 C 83.99 -5.16 85.07 -4.91 86.35 -4.91 L 86.35 -4.91 C 87.89 -4.91 89.12 -5.16 90.06 -5.64 C 90.97 -6.12 91.64 -6.93 92.1 -8.08 C 92.56 -9.24 92.83 -10.8 92.93 -12.76 Z M 138.29 -22.75 L 138.29 -22.75 L 138.29 -16.09 C 138.29 -13.32 137.96 -10.9 137.35 -8.84 C 136.7 -6.77 135.79 -5.02 134.61 -3.65 C 133.4 -2.26 131.98 -1.21 130.31 -0.51 C 128.62 0.19 126.77 0.54 124.7 0.54 L 124.7 0.54 C 122.66 0.54 120.8 0.19 119.14 -0.51 C 117.45 -1.21 116.02 -2.26 114.81 -3.65 C 113.61 -5.02 112.67 -6.77 112.02 -8.84 C 111.35 -10.9 111.03 -13.32 111.03 -16.09 L 111.03 -16.09 L 111.03 -22.75 C 111.03 -25.54 111.35 -27.98 111.99 -30.1 C 112.64 -32.2 113.58 -33.95 114.79 -35.37 C 116 -36.79 117.42 -37.84 119.11 -38.56 C 120.78 -39.29 122.63 -39.64 124.64 -39.64 L 124.64 -39.64 C 126.71 -39.64 128.56 -39.29 130.26 -38.56 C 131.92 -37.84 133.34 -36.79 134.55 -35.37 C 135.76 -33.95 136.68 -32.2 137.32 -30.1 C 137.96 -27.98 138.29 -25.54 138.29 -22.75 Z M 131.81 -16.09 L 131.81 -16.09 L 131.81 -22.8 C 131.81 -24.79 131.65 -26.51 131.36 -27.93 C 131.04 -29.35 130.58 -30.51 129.96 -31.42 C 129.34 -32.31 128.62 -32.98 127.73 -33.44 C 126.85 -33.86 125.8 -34.08 124.64 -34.08 L 124.64 -34.08 C 123.52 -34.08 122.52 -33.86 121.64 -33.44 C 120.75 -32.98 119.97 -32.31 119.38 -31.42 C 118.76 -30.51 118.28 -29.35 117.98 -27.93 C 117.66 -26.51 117.5 -24.79 117.5 -22.8 L 117.5 -22.8 L 117.5 -16.09 C 117.5 -14.13 117.66 -12.46 117.98 -11.06 C 118.31 -9.64 118.79 -8.51 119.41 -7.63 C 120.02 -6.74 120.78 -6.07 121.66 -5.64 C 122.55 -5.21 123.57 -5 124.7 -5 L 124.7 -5 C 125.85 -5 126.87 -5.21 127.76 -5.64 C 128.65 -6.07 129.4 -6.74 130.01 -7.63 C 130.61 -8.51 131.06 -9.64 131.36 -11.06 C 131.65 -12.46 131.81 -14.13 131.81 -16.09 Z M 171.71 -39.1 L 178 -39.1 L 178 0 L 171.61 0 L 157.8 -27.07 L 157.8 0 L 151.49 0 L 151.49 -39.1 L 157.8 -39.1 L 171.71 -11.84 L 171.71 -39.1 Z" stroke-linecap="round" />
</g>
</g>
</g>
<g transform="matrix(1.9211538461538462 0 0 1.9211538461538462 639.6675055668013 751.9792768489706)" id="tagline-349a793b-1956-40c1-9487-db70b7f10f6a-logo"  >
<g style=""  paint-order="stroke"   >
		<g transform="matrix(1 0 0 1 0 0)" id="tagline-349a793b-1956-40c1-9487-db70b7f10f6a-logo-path-0"  >
<path style="stroke: none; stroke-width: 0; stroke-dasharray: none; stroke-linecap: butt; stroke-dashoffset: 0; stroke-linejoin: miter; stroke-miterlimit: 4; fill: rgb(0,0,0); fill-rule: nonzero; opacity: 1;"  paint-order="stroke"  transform=" translate(-126.46, 3.3499999999999996)" d="M 3.9 0 C 5.13 0 6.05 -0.83 6.05 -1.92 C 6.05 -2.76 5.52 -3.27 4.68 -3.44 C 5.34 -3.68 5.75 -4.18 5.75 -4.91 C 5.75 -5.91 4.97 -6.66 3.8 -6.7 L 0.5 -6.7 L 0.5 0 Z M 1.3 -0.7 L 1.3 -3.19 L 3.95 -3.19 C 4.76 -3.19 5.3 -2.69 5.3 -1.92 C 5.3 -1.17 4.76 -0.7 3.85 -0.7 Z M 1.3 -3.79 L 1.3 -6 L 3.65 -6 C 4.49 -6 5 -5.63 5 -4.91 C 5 -4.23 4.58 -3.85 3.88 -3.79 Z M 9.03 0 L 13.83 0 L 13.83 -0.7 L 9.83 -0.7 L 9.83 -3 L 13.23 -3 L 13.23 -3.7 L 9.83 -3.7 L 9.83 -6 L 13.83 -6 L 13.83 -6.7 L 9.03 -6.7 Z M 23.22 -1.47 C 22.58 -0.51 21.5 0.11 20.29 0.11 C 19.02 0.11 17.9 -0.57 17.28 -1.63 C 16.97 -2.16 16.81 -2.73 16.81 -3.35 C 16.81 -4.59 17.46 -5.71 18.53 -6.34 C 19.06 -6.65 19.65 -6.81 20.29 -6.81 C 21.53 -6.81 22.63 -6.16 23.26 -5.15 L 22.58 -4.76 C 22.11 -5.56 21.25 -6.06 20.29 -6.06 C 19.33 -6.06 18.45 -5.54 17.97 -4.71 C 17.73 -4.3 17.61 -3.84 17.61 -3.35 C 17.61 -2.36 18.13 -1.49 18.95 -1.01 C 19.36 -0.77 19.8 -0.65 20.29 -0.65 C 21.21 -0.65 22.04 -1.12 22.53 -1.87 Z M 26.6 0 L 27.29 -1.65 L 30.65 -1.65 L 31.34 0 L 32.2 0 L 29.4 -6.7 L 28.54 -6.7 L 25.74 0 Z M 27.58 -2.35 L 28.97 -5.67 L 30.36 -2.35 Z M 39.98 -6.7 L 39.98 -2.72 C 39.98 -1.49 39.08 -0.65 37.99 -0.65 C 36.82 -0.65 35.98 -1.53 35.98 -2.72 L 35.98 -6.7 L 35.18 -6.7 L 35.18 -2.72 C 35.18 -1.69 35.73 -0.79 36.59 -0.28 C 37.02 -0.03 37.48 0.1 37.99 0.1 C 38.99 0.1 39.91 -0.45 40.41 -1.31 C 40.66 -1.74 40.78 -2.21 40.78 -2.72 L 40.78 -6.7 Z M 44.52 -2.08 L 43.76 -1.8 C 44.23 -0.53 45.14 0.1 46.5 0.1 C 47.95 0.1 48.97 -0.73 48.97 -1.85 C 48.97 -2.65 48.48 -3.11 47.86 -3.34 C 47.55 -3.45 47.14 -3.57 46.63 -3.69 C 45.76 -3.89 45.35 -4.01 45.03 -4.33 C 44.86 -4.48 44.78 -4.69 44.78 -4.94 C 44.78 -5.63 45.47 -6.1 46.35 -6.1 C 47.26 -6.1 47.74 -5.72 48.13 -4.75 L 48.87 -5.05 C 48.4 -6.22 47.59 -6.8 46.35 -6.8 C 45.03 -6.8 43.98 -6.02 43.98 -4.94 C 43.98 -4.09 44.51 -3.59 45.15 -3.35 C 45.47 -3.22 45.89 -3.1 46.42 -2.97 C 47.23 -2.77 47.63 -2.67 47.94 -2.39 C 48.09 -2.25 48.17 -2.07 48.17 -1.85 C 48.17 -1.1 47.53 -0.6 46.5 -0.6 C 45.41 -0.6 44.87 -1.11 44.52 -2.08 Z M 51.95 0 L 56.75 0 L 56.75 -0.7 L 52.75 -0.7 L 52.75 -3 L 56.15 -3 L 56.15 -3.7 L 52.75 -3.7 L 52.75 -6 L 56.75 -6 L 56.75 -6.7 L 51.95 -6.7 Z M 64.51 0 L 64.51 -3 L 67.91 -3 L 67.91 -3.7 L 64.51 -3.7 L 64.51 -6 L 68.51 -6 L 68.51 -6.7 L 63.71 -6.7 L 63.71 0 Z M 72.29 0 L 72.29 -6.7 L 71.49 -6.7 L 71.49 0 Z M 76.08 0 L 76.08 -5.56 L 80.02 0 L 80.88 0 L 80.88 -6.7 L 80.08 -6.7 L 80.08 -1.13 L 76.13 -6.7 L 75.27 -6.7 L 75.28 -6.69 L 75.28 0 Z M 84.72 0 L 85.41 -1.65 L 88.77 -1.65 L 89.46 0 L 90.32 0 L 87.52 -6.7 L 86.66 -6.7 L 83.86 0 Z M 85.7 -2.35 L 87.09 -5.67 L 88.48 -2.35 Z M 94.11 0 L 94.11 -5.56 L 98.05 0 L 98.91 0 L 98.91 -6.7 L 98.11 -6.7 L 98.11 -1.13 L 94.16 -6.7 L 93.3 -6.7 L 93.31 -6.69 L 93.31 0 Z M 108.3 -1.47 C 107.66 -0.51 106.58 0.11 105.37 0.11 C 104.1 0.11 102.98 -0.57 102.36 -1.63 C 102.05 -2.16 101.89 -2.73 101.89 -3.35 C 101.89 -4.59 102.54 -5.71 103.61 -6.34 C 104.14 -6.65 104.73 -6.81 105.37 -6.81 C 106.61 -6.81 107.71 -6.16 108.34 -5.15 L 107.66 -4.76 C 107.19 -5.56 106.33 -6.06 105.37 -6.06 C 104.41 -6.06 103.53 -5.54 103.05 -4.71 C 102.81 -4.3 102.69 -3.84 102.69 -3.35 C 102.69 -2.36 103.21 -1.49 104.03 -1.01 C 104.44 -0.77 104.88 -0.65 105.37 -0.65 C 106.29 -0.65 107.12 -1.12 107.61 -1.87 Z M 111.32 0 L 116.12 0 L 116.12 -0.7 L 112.12 -0.7 L 112.12 -3 L 115.52 -3 L 115.52 -3.7 L 112.12 -3.7 L 112.12 -6 L 116.12 -6 L 116.12 -6.7 L 111.32 -6.7 Z M 123.84 -2.08 L 123.08 -1.8 C 123.55 -0.53 124.46 0.1 125.82 0.1 C 127.27 0.1 128.29 -0.73 128.29 -1.85 C 128.29 -2.65 127.8 -3.11 127.18 -3.34 C 126.87 -3.45 126.46 -3.57 125.95 -3.69 C 125.08 -3.89 124.67 -4.01 124.35 -4.33 C 124.18 -4.48 124.1 -4.69 124.1 -4.94 C 124.1 -5.63 124.79 -6.1 125.67 -6.1 C 126.58 -6.1 127.06 -5.72 127.45 -4.75 L 128.19 -5.05 C 127.72 -6.22 126.91 -6.8 125.67 -6.8 C 124.35 -6.8 123.3 -6.02 123.3 -4.94 C 123.3 -4.09 123.83 -3.59 124.47 -3.35 C 124.79 -3.22 125.21 -3.1 125.74 -2.97 C 126.55 -2.77 126.95 -2.67 127.26 -2.39 C 127.41 -2.25 127.49 -2.07 127.49 -1.85 C 127.49 -1.1 126.85 -0.6 125.82 -0.6 C 124.73 -0.6 124.19 -1.11 123.84 -2.08 Z M 132.07 0 L 132.07 -3 L 136.07 -3 L 136.07 0 L 136.87 0 L 136.87 -6.7 L 136.07 -6.7 L 136.07 -3.7 L 132.07 -3.7 L 132.07 -6.7 L 131.27 -6.7 L 131.27 0 Z M 143.33 0.11 C 144.61 0.11 145.74 -0.57 146.35 -1.63 C 146.66 -2.16 146.81 -2.73 146.81 -3.35 C 146.81 -4.59 146.15 -5.71 145.08 -6.34 C 144.55 -6.65 143.96 -6.81 143.33 -6.81 C 142.05 -6.81 140.92 -6.14 140.31 -5.08 C 140 -4.55 139.85 -3.97 139.85 -3.35 C 139.85 -2.11 140.51 -0.99 141.58 -0.36 C 142.11 -0.05 142.7 0.11 143.33 0.11 Z M 143.33 -0.65 C 142.36 -0.65 141.49 -1.16 141.01 -1.99 C 140.77 -2.4 140.65 -2.86 140.65 -3.35 C 140.65 -4.34 141.16 -5.21 141.99 -5.7 C 142.4 -5.94 142.85 -6.06 143.33 -6.06 C 144.3 -6.06 145.17 -5.54 145.65 -4.71 C 145.89 -4.3 146.01 -3.84 146.01 -3.35 C 146.01 -2.36 145.5 -1.49 144.67 -1.01 C 144.26 -0.77 143.81 -0.65 143.33 -0.65 Z M 154.59 -6.7 L 154.59 -2.72 C 154.59 -1.49 153.69 -0.65 152.6 -0.65 C 151.43 -0.65 150.59 -1.53 150.59 -2.72 L 150.59 -6.7 L 149.79 -6.7 L 149.79 -2.72 C 149.79 -1.69 150.34 -0.79 151.2 -0.28 C 151.63 -0.03 152.09 0.1 152.6 0.1 C 153.6 0.1 154.52 -0.45 155.02 -1.31 C 155.27 -1.74 155.39 -2.21 155.39 -2.72 L 155.39 -6.7 Z M 158.37 0 L 163.17 0 L 163.17 -0.7 L 159.17 -0.7 L 159.17 -6.7 L 158.37 -6.7 Z M 168.77 0 C 170 0 171.08 -0.65 171.68 -1.68 C 171.98 -2.19 172.13 -2.75 172.13 -3.35 C 172.13 -4.55 171.5 -5.64 170.47 -6.25 C 169.96 -6.55 169.39 -6.7 168.77 -6.7 L 166.15 -6.7 L 166.15 0 Z M 166.95 -0.71 L 166.95 -6 L 168.77 -6 C 169.69 -6 170.53 -5.49 170.99 -4.68 C 171.22 -4.27 171.33 -3.83 171.33 -3.35 C 171.33 -1.88 170.2 -0.71 168.77 -0.71 Z M 179.09 -1.88 C 179.28 -0.69 180.27 0.1 181.4 0.1 C 182.7 0.1 183.74 -0.94 183.74 -2.24 L 183.74 -6.7 L 182.94 -6.7 L 182.94 -2.24 C 182.94 -1.35 182.31 -0.7 181.4 -0.7 C 180.57 -0.7 180 -1.2 179.87 -2 Z M 191.52 -6.7 L 191.52 -2.72 C 191.52 -1.49 190.62 -0.65 189.53 -0.65 C 188.36 -0.65 187.52 -1.53 187.52 -2.72 L 187.52 -6.7 L 186.72 -6.7 L 186.72 -2.72 C 186.72 -1.69 187.27 -0.79 188.13 -0.28 C 188.56 -0.03 189.02 0.1 189.53 0.1 C 190.53 0.1 191.45 -0.45 191.95 -1.31 C 192.2 -1.74 192.32 -2.21 192.32 -2.72 L 192.32 -6.7 Z M 196.06 -2.08 L 195.3 -1.8 C 195.77 -0.53 196.68 0.1 198.04 0.1 C 199.49 0.1 200.51 -0.73 200.51 -1.85 C 200.51 -2.65 200.02 -3.11 199.4 -3.34 C 199.09 -3.45 198.68 -3.57 198.17 -3.69 C 197.3 -3.89 196.89 -4.01 196.57 -4.33 C 196.4 -4.48 196.32 -4.69 196.32 -4.94 C 196.32 -5.63 197.01 -6.1 197.89 -6.1 C 198.8 -6.1 199.28 -5.72 199.67 -4.75 L 200.41 -5.05 C 199.94 -6.22 199.13 -6.8 197.89 -6.8 C 196.57 -6.8 195.52 -6.02 195.52 -4.94 C 195.52 -4.09 196.05 -3.59 196.69 -3.35 C 197.01 -3.22 197.43 -3.1 197.96 -2.97 C 198.77 -2.77 199.17 -2.67 199.48 -2.39 C 199.63 -2.25 199.71 -2.07 199.71 -1.85 C 199.71 -1.1 199.07 -0.6 198.04 -0.6 C 196.95 -0.6 196.41 -1.11 196.06 -2.08 Z M 206.69 0 L 206.69 -6 L 209.09 -6 L 209.09 -6.7 L 203.49 -6.7 L 203.49 -6 L 205.89 -6 L 205.89 0 Z M 216.81 -2.08 L 216.05 -1.8 C 216.52 -0.53 217.43 0.1 218.79 0.1 C 220.24 0.1 221.26 -0.73 221.26 -1.85 C 221.26 -2.65 220.77 -3.11 220.15 -3.34 C 219.84 -3.45 219.43 -3.57 218.92 -3.69 C 218.05 -3.89 217.64 -4.01 217.32 -4.33 C 217.15 -4.48 217.07 -4.69 217.07 -4.94 C 217.07 -5.63 217.76 -6.1 218.64 -6.1 C 219.55 -6.1 220.03 -5.72 220.42 -4.75 L 221.16 -5.05 C 220.69 -6.22 219.88 -6.8 218.64 -6.8 C 217.32 -6.8 216.27 -6.02 216.27 -4.94 C 216.27 -4.09 216.8 -3.59 217.44 -3.35 C 217.76 -3.22 218.18 -3.1 218.71 -2.97 C 219.52 -2.77 219.92 -2.67 220.23 -2.39 C 220.38 -2.25 220.46 -2.07 220.46 -1.85 C 220.46 -1.1 219.82 -0.6 218.79 -0.6 C 217.7 -0.6 217.16 -1.11 216.81 -2.08 Z M 227.7 -2.58 L 227.78 -2.7 L 230.37 -6.7 L 229.41 -6.7 L 227.3 -3.44 L 225.2 -6.7 L 224.24 -6.7 L 226.82 -2.7 L 226.9 -2.58 L 226.9 0 L 227.7 0 Z M 234.16 0 L 234.16 -5.56 L 238.1 0 L 238.96 0 L 238.96 -6.7 L 238.16 -6.7 L 238.16 -1.13 L 234.21 -6.7 L 233.35 -6.7 L 233.36 -6.69 L 233.36 0 Z M 248.35 -1.47 C 247.71 -0.51 246.63 0.11 245.42 0.11 C 244.15 0.11 243.03 -0.57 242.41 -1.63 C 242.1 -2.16 241.94 -2.73 241.94 -3.35 C 241.94 -4.59 242.59 -5.71 243.66 -6.34 C 244.19 -6.65 244.78 -6.81 245.42 -6.81 C 246.66 -6.81 247.76 -6.16 248.39 -5.15 L 247.71 -4.76 C 247.24 -5.56 246.38 -6.06 245.42 -6.06 C 244.46 -6.06 243.58 -5.54 243.1 -4.71 C 242.86 -4.3 242.74 -3.84 242.74 -3.35 C 242.74 -2.36 243.26 -1.49 244.08 -1.01 C 244.49 -0.77 244.93 -0.65 245.42 -0.65 C 246.34 -0.65 247.17 -1.12 247.66 -1.87 Z M 251.9 0.1 C 252.19 0.1 252.42 -0.12 252.42 -0.43 C 252.42 -0.72 252.19 -0.95 251.9 -0.95 C 251.59 -0.95 251.37 -0.74 251.37 -0.43 C 251.37 -0.12 251.59 0.1 251.9 0.1 Z" stroke-linecap="round" />
</g>
</g>
</g>
<g transform="matrix(1.9211538461538462 0 0 1.9211538461538462 813.4094197734702 693.4827759055966)" id="tagline-14b5dd79-6b1a-4210-8c87-888f49a15f3a-logo"  >
<g style=""  paint-order="stroke"   >
		<g transform="matrix(1 0 0 1 0 0)" id="tagline-14b5dd79-6b1a-4210-8c87-888f49a15f3a-logo-path-0"  >
<path style="stroke: rgb(255,255,255); stroke-width: 0; stroke-dasharray: none; stroke-linecap: butt; stroke-dashoffset: 0; stroke-linejoin: miter; stroke-miterlimit: 4; fill: rgb(237,175,24); fill-rule: nonzero; opacity: 1;"  paint-order="stroke"  transform=" translate(-71.79, 19.55)" d="M 20.46 -10.1 L 20.46 -10.1 C 20.46 -10.9 20.38 -11.63 20.22 -12.27 C 20.03 -12.89 19.71 -13.48 19.26 -13.99 C 18.8 -14.5 18.13 -15.01 17.29 -15.52 C 16.44 -16.03 15.33 -16.54 13.99 -17.05 L 13.99 -17.05 C 12.46 -17.64 11.01 -18.29 9.69 -19.01 C 8.35 -19.71 7.17 -20.52 6.18 -21.43 C 5.16 -22.32 4.35 -23.39 3.79 -24.6 C 3.22 -25.81 2.93 -27.23 2.93 -28.84 L 2.93 -28.84 C 2.93 -30.43 3.2 -31.9 3.79 -33.22 C 4.35 -34.54 5.16 -35.66 6.2 -36.63 C 7.25 -37.57 8.49 -38.32 9.94 -38.86 C 11.39 -39.37 13 -39.64 14.74 -39.64 L 14.74 -39.64 C 17.27 -39.64 19.44 -39.1 21.24 -38.03 C 23.04 -36.95 24.41 -35.5 25.38 -33.7 C 26.32 -31.9 26.8 -29.89 26.8 -27.69 L 26.8 -27.69 L 20.3 -27.69 C 20.3 -28.95 20.11 -30.08 19.71 -31.07 C 19.31 -32.07 18.72 -32.82 17.89 -33.38 C 17.05 -33.95 16.01 -34.21 14.69 -34.21 L 14.69 -34.21 C 13.48 -34.21 12.51 -33.97 11.74 -33.52 C 10.96 -33.06 10.37 -32.41 10.02 -31.61 C 9.64 -30.8 9.45 -29.89 9.45 -28.84 L 9.45 -28.84 C 9.45 -28.12 9.61 -27.47 9.91 -26.91 C 10.21 -26.32 10.66 -25.78 11.23 -25.3 C 11.79 -24.81 12.49 -24.36 13.32 -23.93 C 14.15 -23.5 15.09 -23.1 16.17 -22.69 L 16.17 -22.69 C 17.99 -22.02 19.58 -21.3 20.95 -20.49 C 22.32 -19.69 23.44 -18.8 24.33 -17.81 C 25.22 -16.81 25.86 -15.68 26.32 -14.42 C 26.75 -13.16 26.96 -11.74 26.96 -10.15 L 26.96 -10.15 C 26.96 -8.54 26.69 -7.09 26.16 -5.77 C 25.59 -4.46 24.81 -3.33 23.77 -2.39 C 22.72 -1.45 21.48 -0.73 20.01 -0.24 C 18.53 0.27 16.89 0.54 15.07 0.54 L 15.07 0.54 C 13.37 0.54 11.76 0.3 10.23 -0.21 C 8.67 -0.73 7.28 -1.48 6.07 -2.52 C 4.86 -3.54 3.89 -4.83 3.2 -6.39 C 2.47 -7.95 2.12 -9.78 2.12 -11.87 L 2.12 -11.87 L 8.65 -11.87 C 8.65 -10.61 8.81 -9.56 9.1 -8.67 C 9.4 -7.79 9.86 -7.06 10.45 -6.5 C 11.01 -5.94 11.71 -5.51 12.51 -5.26 C 13.29 -5 14.18 -4.86 15.17 -4.86 L 15.17 -4.86 C 16.38 -4.86 17.4 -5.08 18.18 -5.53 C 18.96 -5.96 19.52 -6.58 19.9 -7.36 C 20.28 -8.14 20.46 -9.05 20.46 -10.1 Z M 36.33 -39.1 L 43.55 -39.1 L 50.43 -20.57 L 57.3 -39.1 L 64.5 -39.1 L 53.7 -14.39 L 53.7 0 L 47.12 0 L 47.12 -14.39 L 36.33 -39.1 Z M 95.62 -39.1 L 101.9 -39.1 L 101.9 0 L 95.51 0 L 81.71 -27.07 L 81.71 0 L 75.4 0 L 75.4 -39.1 L 81.71 -39.1 L 95.62 -11.84 L 95.62 -39.1 Z M 134.93 -12.76 L 134.93 -12.76 L 141.43 -12.76 C 141.29 -9.94 140.73 -7.52 139.71 -5.56 C 138.69 -3.57 137.24 -2.07 135.33 -1.02 C 133.43 0.03 131.09 0.54 128.35 0.54 L 128.35 0.54 C 126.28 0.54 124.43 0.16 122.79 -0.59 C 121.15 -1.34 119.76 -2.44 118.6 -3.87 C 117.45 -5.29 116.59 -7.01 116 -9.08 C 115.38 -11.15 115.08 -13.48 115.08 -16.09 L 115.08 -16.09 L 115.08 -23.02 C 115.08 -25.62 115.41 -27.96 116.02 -30.02 C 116.64 -32.09 117.53 -33.84 118.68 -35.26 C 119.84 -36.68 121.26 -37.79 122.95 -38.54 C 124.62 -39.26 126.5 -39.64 128.62 -39.64 L 128.62 -39.64 C 131.33 -39.64 133.59 -39.13 135.44 -38.08 C 137.29 -37.03 138.72 -35.53 139.71 -33.52 C 140.7 -31.5 141.29 -29.06 141.46 -26.18 L 141.46 -26.18 L 134.96 -26.18 C 134.88 -28.14 134.61 -29.7 134.18 -30.88 C 133.72 -32.04 133.08 -32.9 132.19 -33.41 C 131.3 -33.92 130.1 -34.19 128.62 -34.19 L 128.62 -34.19 C 127.38 -34.19 126.34 -33.95 125.45 -33.49 C 124.56 -33.03 123.84 -32.33 123.27 -31.42 C 122.71 -30.48 122.28 -29.33 122.01 -27.96 C 121.72 -26.56 121.58 -24.92 121.58 -23.07 L 121.58 -23.07 L 121.58 -16.09 C 121.58 -14.29 121.69 -12.7 121.93 -11.33 C 122.17 -9.96 122.55 -8.78 123.06 -7.84 C 123.57 -6.88 124.27 -6.15 125.13 -5.67 C 125.99 -5.16 127.06 -4.91 128.35 -4.91 L 128.35 -4.91 C 129.88 -4.91 131.12 -5.16 132.06 -5.64 C 132.97 -6.12 133.64 -6.93 134.1 -8.08 C 134.55 -9.24 134.82 -10.8 134.93 -12.76 Z" stroke-linecap="round" />
</g>
</g>
</g>
</svg>